Four fighters different backgrounds come together to train under an ex MMA rising star and then ultimately have to fight each other and the traitor in heir midst.

IMDB rating: 5.6/10 (from 1,716 users)

CAST:

Stacey Asaro................Receptionist
Gralen Bryant Banks.........Frankie
Rus Blackwell...............White Cop
Beau Brasseaux..............Fighter (as Beau Brasso)
Eddie Bravo.................D.J. Bravo
Jude Cambise................Referee
Grant Case..................Zack's Friend
Laura Cayouette.............Vale
Trace Cheramie..............Cop
Margo Nicole Clark..........Girl in Park that gets a kiss and gives her number
Gerardo Davila..............Hispanic Cop
Todd Duffee.................Tim Newhouse
Danny Epper.................Irate Big man
Scottie Epstein.............Justin Epstein
Alex Froman.................College Student 

Format                           : Matroska
File size                        : 1 008 MiB
Duration                         : 1h 39mn
Overall bit rate                 : 1 419 Kbps
Encoded date                     : UTC 2011-09-28 17:47:51
Writing application              : mkvmerge v5.0.0 ('Die Wahre Liebe') built on Sep 25 2011 20:33:49
Writing library                  : libebml v1.2.2 + libmatroska v1.3.0

Video
ID                               : 1
Format                           : AVC
Format/Info                      : Advanced Video Codec
Format profile                   : Main@L3.0
Format settings, CABAC           : Yes
Format settings, ReFrames        : 4 frames
Muxing mode                      : Container profile=Unknown@3.0
Codec ID                         : V_MPEG4/ISO/AVC
Duration                         : 1h 39mn
Bit rate                         : 1 006 Kbps
Nominal bit rate                 : 1 020 Kbps
Width                            : 720 pixels
Height                           : 400 pixels
Display aspect ratio             : 16:9
Frame rate                       : 23.976 fps
Resolution                       : 8 bits
Colorimetry                      : 4:2:0
Scan type                        : Progressive
Bits/(Pixel*Frame)               : 0.146
Stream size                      : 715 MiB (71%)
Writing library                  : x264 core 112

Audio
ID                               : 2
Format                           : AC-3
Format/Info                      : Audio Coding 3
Codec ID                         : A_AC3
Duration                         : 1h 39mn
Bit rate mode                    : Constant
Bit rate                         : 384 Kbps
Channel(s)                       : 6 channels
Channel positions                : Front: L C R, Side: L R, LFE
Sampling rate                    : 48.0 KHz
Stream size                      : 273 MiB (27%)

Text(subtitles)

Format                           : VobSub
Codec ID                         : S_VOBSUB
Codec ID/Info                    : The same subtitle format used on DVDs
Language                         : Romanian
Language                         : English
Language                         : French
Language                         : German
Language                         : Italian
Language                         : Spanish

Recommended media player :VLC media player: [url=http://www.videolan.org/vlc/[/url] 